<?xml version="1.0" encoding="utf-8"?>
<!-- Generator: Adobe Illustrator 25.3.1, SVG Export Plug-In . SVG Version: 6.00 Build 0)  -->
<svg version="1.1" id="Слой_1" xmlns="http://www.w3.org/2000/svg" xmlns:xlink="http://www.w3.org/1999/xlink" x="0px" y="0px"
	 viewBox="0 0 206 47" style="enable-background:new 0 0 206 47;" xml:space="preserve">
<path d="M41.74,45.66l-0.15-0.15c1.45-2.45,2.85-4.98,4.19-7.58c1.35-2.6,2.72-5.28,4.12-8.02c0.55-1.08,1.2-2.43,1.95-4.05
	c0.8-1.62,1.7-3.51,2.7-5.67h0.15c0.35,0.25,0.75,0.37,1.2,0.37c1.05,0,2.2-0.47,3.44-1.4l0.15-0.15l-0.07,0.15h-0.07
	c-0.35,0.69-1,1.89-1.95,3.61c-0.9,1.67-2.07,3.88-3.52,6.63c4.09-6.38,7.51-9.57,10.26-9.57c1.85,0,2.77,0.86,2.77,2.58
	c0,1.42-0.62,3.51-1.87,6.26c1.05-1.42,1.92-2.58,2.62-3.46c0.7-0.93,1.22-1.57,1.57-1.91c2.1-2.21,3.97-3.31,5.62-3.31
	c2.15,0,3.22,1.03,3.22,3.09c0,1.52-0.4,3.07-1.2,4.64c-0.75,1.52-1.65,3.07-2.7,4.64c-1.05,1.52-2,3.04-2.85,4.56
	c-0.4,0.79-0.77,1.62-1.12,2.5c-0.3,0.83-0.45,1.6-0.45,2.28c0,0.64,0.2,1.18,0.6,1.62c0.4,0.39,1.07,0.59,2.02,0.59
	c0.7,0,1.37-0.12,2.02-0.37c0.65-0.29,1.22-0.61,1.72-0.96c1.35-1.03,2.5-2.23,3.44-3.61c0.95-1.37,1.77-2.75,2.47-4.12
	c0.7-1.37,1.32-2.53,1.87-3.46c0.15-0.25,0.3-0.32,0.45-0.22c0.15,0.05,0.17,0.2,0.07,0.44c-1,2.06-2.1,4.17-3.29,6.33
	s-2.72,3.88-4.57,5.15c-0.65,0.44-1.37,0.81-2.17,1.1c-0.75,0.29-1.55,0.44-2.4,0.44c-1.75,0-3.02-0.37-3.82-1.1
	c-0.75-0.79-1.12-1.79-1.12-3.02c0-0.88,0.2-1.96,0.6-3.24c0.3-0.88,0.67-1.82,1.12-2.8c0.5-1.03,1.12-2.13,1.87-3.31
	c2.65-4.32,3.97-7.12,3.97-8.39c0-0.83-0.37-1.25-1.12-1.25c-2.1,0-5.14,3.21-9.14,9.64c-1.25,1.96-2.45,4.02-3.59,6.18
	c-1.15,2.11-2.3,4.32-3.44,6.63h-0.15c-0.35-0.1-0.67-0.17-0.97-0.22c-0.3-0.05-0.57-0.07-0.82-0.07c-1.5,0-2.4,0.52-2.7,1.55
	l-0.22-0.15c1.9-3.24,3.39-5.82,4.49-7.73s1.82-3.17,2.17-3.75c3.19-5.99,4.79-9.82,4.79-11.48c0-0.74-0.27-1.1-0.82-1.1
	c-2.05,0-5.12,3.29-9.21,9.86c-2.7,4.27-5.12,8.66-7.26,13.18l-0.15,0.07c-0.65-0.25-1.22-0.37-1.72-0.37
	c-0.85,0-1.55,0.32-2.1,0.96C42.13,45.34,41.84,45.66,41.74,45.66z"/>
<path d="M14.28,46.47c-3.59,0-6.76-1.15-9.51-3.46C1.92,40.56,0.5,37.59,0.5,34.1c0-3.53,1.25-6.72,3.74-9.57
	c2.5-2.65,5.54-4.34,9.14-5.08c-0.2-0.74-0.3-1.57-0.3-2.5c0-2.36,0.57-4.74,1.72-7.14c1.2-2.55,2.75-4.44,4.64-5.67
	c3.69-2.4,7.94-3.61,12.73-3.61c3.44,0,7.21,0.61,11.31,1.84c0.65,0.15,1.87,0.54,3.67,1.18c1.85,0.59,4.27,1.42,7.26,2.5
	c2.75-1.87,5.27-2.8,7.56-2.8c2.25,0,3.37,0.83,3.37,2.5s-1.5,2.5-4.49,2.5c-1.55,0-3.52-0.42-5.92-1.25
	c-2.95,3.04-5.77,7.9-8.46,14.58h3.97l0.15,0.15v0.44l-0.15,0.07h-4.19c-3,6.97-6.61,12.27-10.86,15.9v-0.07
	c-1.55,1.37-3.1,2.58-4.64,3.61c-1.55,0.98-3.1,1.79-4.64,2.43c-3,1.23-6.64,1.99-10.93,2.28c-0.15,0-0.3,0-0.45,0
	C14.58,46.44,14.43,46.47,14.28,46.47z M15.25,45.36c4.14,0,8.24-1.62,12.28-4.86c3.29-2.65,6.22-6.04,8.76-10.16
	c0.55-0.93,1.22-2.06,2.02-3.39c0.85-1.33,1.82-2.9,2.92-4.71h-6.66l-0.07-0.07v-0.44l0.07-0.15h7.04
	c4.84-7.66,8.84-12.64,11.98-14.94c-8.44-2.65-15.43-3.98-20.97-3.98c-5.59,0-9.78,1.3-12.58,3.9c-3.15,2.99-4.72,6.67-4.72,11.04
	c0,0.25,0,0.52,0,0.81c0,0.25,0.02,0.49,0.07,0.74c0.25,0,0.45,0,0.6,0c0.2-0.05,0.4-0.07,0.6-0.07c4.74,0,7.64,1.99,8.69,5.96
	c1.95-0.83,3.72-2.13,5.32-3.9c1.85-1.96,2.77-3.88,2.77-5.74c0-0.29,0.1-0.44,0.3-0.44s0.3,0.1,0.3,0.29
	c0,0.05-0.02,0.12-0.07,0.22c0,0.1,0,0.2,0,0.29c-1.1,4.86-3.92,8.17-8.46,9.94c0.15,0.59,0.22,1.23,0.22,1.91
	c0,2.75-1.1,5.15-3.29,7.21c-2.15,1.96-4.64,2.94-7.49,2.94c-0.3,0-0.45-0.12-0.45-0.37c0-0.34,0.25-0.54,0.75-0.59
	c0.25-0.05,0.57-0.1,0.97-0.15c0.45-0.05,0.92-0.15,1.42-0.29c3.79-0.88,6.12-3.17,6.96-6.85c0.1-0.39,0.17-0.79,0.22-1.18
	c0.05-0.44,0.07-0.83,0.07-1.18c0-0.2-0.02-0.39-0.07-0.59c0-0.25,0-0.47,0-0.66c-1.05,0.34-2.12,0.52-3.22,0.52
	c-2,0-3.67-0.56-5.02-1.69c-1.4-1.13-2.37-2.6-2.92-4.42c-3.15,1.18-5.69,3.12-7.64,5.82c-2,2.75-3,5.77-3,9.06
	c0,3.39,1.22,5.96,3.67,7.73C8.84,44.55,11.71,45.36,15.25,45.36z M60.93,7.67c2.5,0,3.74-0.64,3.74-1.91
	c0-1.37-0.97-2.06-2.92-2.06c-2.25,0-4.32,0.91-6.22,2.72C57.93,7.25,59.73,7.67,60.93,7.67z M21.77,25.78c1,0,1.95-0.17,2.85-0.52
	c-0.45-1.72-1.4-3.07-2.85-4.05c-1.45-0.98-3.07-1.47-4.87-1.47c-0.2,0-0.42,0-0.67,0c-0.2,0-0.42,0.02-0.67,0.07
	c0.15,0.79,0.4,1.52,0.75,2.21c0.4,0.69,0.85,1.33,1.35,1.91C18.85,25.17,20.22,25.78,21.77,25.78z"/>
<path d="M98.88,31.63l5.17,12.16h-1.49l-4.04-10.53L98.88,31.63z M95.12,42.64c-0.08,0.23-0.09,0.42-0.03,0.58
	c0.06,0.16,0.15,0.29,0.28,0.38c0.14,0.08,0.28,0.12,0.42,0.12h0.16v0.17h-3.51v-0.17c0,0,0.03,0,0.09,0c0.05,0,0.07,0,0.07,0
	c0.27,0,0.54-0.08,0.82-0.24c0.29-0.17,0.53-0.45,0.72-0.84H95.12z M98.88,31.63l0.16,1.2l-4.39,11.01H93.6l4.47-10.44
	c0,0,0.03-0.07,0.09-0.21c0.07-0.15,0.15-0.33,0.23-0.53c0.09-0.21,0.17-0.41,0.23-0.6c0.07-0.19,0.1-0.34,0.1-0.43H98.88z
	 M101.34,39.2v0.52h-5.47V39.2H101.34z M102.13,42.64h1.43c0.17,0.39,0.41,0.67,0.7,0.84c0.29,0.16,0.57,0.24,0.84,0.24
	c0,0,0.02,0,0.07,0c0.05,0,0.07,0,0.07,0v0.17h-3.93v-0.17h0.16c0.22,0,0.42-0.09,0.59-0.27C102.23,43.25,102.26,42.98,102.13,42.64
	z"/>
<path d="M111.84,33.59c1.15,0,2.15,0.21,2.99,0.62c0.84,0.41,1.49,1.01,1.94,1.79c0.45,0.77,0.68,1.68,0.68,2.75
	s-0.23,1.98-0.68,2.75c-0.45,0.77-1.1,1.36-1.94,1.79c-0.84,0.41-1.83,0.62-2.99,0.62h-3.72l-0.03-0.52c0.82,0,1.5,0,2.04,0
	c0.56,0,0.98,0,1.28,0c0.29,0,0.44,0,0.44,0c1.35,0,2.41-0.41,3.18-1.24c0.78-0.84,1.17-1.97,1.17-3.4s-0.39-2.56-1.17-3.38
	c-0.77-0.84-1.83-1.25-3.18-1.25c0,0-0.15,0-0.45,0c-0.3,0-0.75,0-1.33,0c-0.58,0-1.3,0-2.15,0v-0.52H111.84z M108.36,33.59v10.31
	h-1.14V33.59H108.36z M107.26,42.78v1.12h-1.26v-0.17c0,0,0.03,0,0.1,0c0.08,0,0.12,0,0.12,0c0.28,0,0.51-0.09,0.7-0.27
	c0.19-0.19,0.29-0.42,0.3-0.67H107.26z M107.26,34.7h-0.03c-0.01-0.27-0.12-0.5-0.31-0.67c-0.19-0.18-0.42-0.27-0.7-0.27
	c0,0-0.03,0-0.1,0c-0.07,0-0.1,0-0.1,0v-0.17h1.26V34.7z"/>
<path d="M123.69,44.13l-4.8-10.44h1.38l3.72,8.92L123.69,44.13z M123.69,44.13l-0.12-1.19l4-9.31h1.1l-4.14,8.73
	c0,0-0.03,0.07-0.1,0.21c-0.06,0.14-0.13,0.31-0.23,0.52c-0.08,0.19-0.16,0.39-0.23,0.58c-0.07,0.19-0.11,0.35-0.12,0.46H123.69z
	 M127.06,34.84c0.13-0.34,0.11-0.61-0.05-0.79c-0.16-0.19-0.35-0.29-0.56-0.29h-0.12v-0.17h3.32v0.17c0,0-0.02,0-0.07,0
	c-0.05,0-0.07,0-0.07,0c-0.24,0-0.49,0.09-0.75,0.26c-0.26,0.16-0.48,0.44-0.66,0.82H127.06z M120.74,34.84h-1.33
	c-0.17-0.39-0.39-0.66-0.65-0.82c-0.26-0.17-0.5-0.26-0.73-0.26c0,0-0.02,0-0.07,0c-0.05,0-0.07,0-0.07,0v-0.17h3.58v0.17h-0.14
	c-0.2,0-0.38,0.1-0.54,0.29C120.64,34.23,120.62,34.5,120.74,34.84z"/>
<path d="M132.9,33.59v10.31h-1.12V33.59H132.9z M137.6,43.36l-0.03,0.53h-4.7v-0.53H137.6z M136.78,38.48V39h-3.91v-0.52H136.78z
	 M137.58,33.59v0.53h-4.72v-0.53H137.58z M138.58,41.44l-0.96,2.46h-2.66l0.59-0.53c0.58,0,1.05-0.08,1.4-0.24
	c0.36-0.17,0.65-0.4,0.87-0.69c0.22-0.3,0.41-0.63,0.58-1H138.58z M136.78,38.96v0.98h-0.19v-0.22c0-0.19-0.06-0.36-0.17-0.5
	c-0.12-0.15-0.3-0.22-0.54-0.22v-0.03H136.78z M136.78,37.54v0.98h-0.91v-0.03c0.24,0,0.43-0.07,0.54-0.21
	c0.12-0.15,0.17-0.32,0.17-0.52v-0.22H136.78z M137.58,34.07v1.19h-0.19v-0.26c0-0.24-0.08-0.45-0.24-0.62
	c-0.15-0.17-0.36-0.26-0.63-0.26v-0.05H137.58z M137.58,33.31v0.45l-1.99-0.17c0.36,0,0.75-0.03,1.15-0.09
	C137.15,33.43,137.43,33.37,137.58,33.31z M131.82,42.79l0.23,1.1h-1.52v-0.17c0,0,0.04,0,0.12,0c0.08,0,0.12,0,0.12,0
	c0.29,0,0.53-0.09,0.72-0.27c0.19-0.18,0.29-0.4,0.3-0.65H131.82z M131.82,34.67h-0.03c-0.01-0.26-0.11-0.48-0.3-0.65
	c-0.19-0.17-0.43-0.26-0.72-0.26c0,0-0.04,0-0.12,0c-0.08,0-0.12,0-0.12,0v-0.17h1.52L131.82,34.67z"/>
<path d="M142.02,33.59h2.25c0.55,0,1.04,0.06,1.47,0.19c0.44,0.13,0.82,0.31,1.12,0.55c0.31,0.24,0.55,0.53,0.72,0.88
	c0.16,0.34,0.24,0.73,0.24,1.17c0,0.48-0.12,0.93-0.35,1.34c-0.23,0.41-0.56,0.75-0.98,1.01c-0.41,0.26-0.87,0.42-1.4,0.48
	c0.2,0.08,0.43,0.26,0.68,0.53c0.27,0.27,0.49,0.54,0.68,0.81c0,0,0.08,0.1,0.23,0.31c0.15,0.19,0.34,0.44,0.58,0.74
	c0.24,0.29,0.48,0.56,0.72,0.82c0.24,0.26,0.47,0.49,0.66,0.69c0.21,0.19,0.43,0.35,0.66,0.46c0.24,0.1,0.52,0.15,0.84,0.15v0.17
	h-0.54c-0.64,0-1.17-0.08-1.59-0.24c-0.41-0.16-0.74-0.36-1-0.58c-0.26-0.24-0.48-0.47-0.66-0.69c-0.05-0.06-0.16-0.2-0.33-0.43
	c-0.16-0.24-0.34-0.5-0.54-0.77c-0.2-0.27-0.38-0.52-0.54-0.74c-0.16-0.23-0.26-0.37-0.3-0.41c-0.23-0.3-0.5-0.56-0.8-0.79
	c-0.3-0.24-0.62-0.36-0.96-0.36V38.7c0,0,0.09,0.01,0.28,0.02c0.19,0,0.43-0.01,0.72-0.02c0.33-0.01,0.65-0.03,0.98-0.07
	c0.33-0.05,0.63-0.17,0.91-0.38c0.29-0.21,0.52-0.55,0.68-1.03c0.05-0.13,0.08-0.27,0.1-0.45c0.02-0.17,0.03-0.35,0.02-0.53
	c-0.01-0.32-0.08-0.61-0.19-0.86c-0.1-0.25-0.26-0.47-0.47-0.65c-0.2-0.18-0.44-0.33-0.72-0.43s-0.59-0.16-0.94-0.17
	c-0.55-0.02-1.03-0.03-1.43-0.02c-0.41,0.01-0.61,0.01-0.61,0c0-0.01-0.02-0.06-0.05-0.14c-0.02-0.09-0.05-0.18-0.09-0.26
	C142.04,33.63,142.02,33.59,142.02,33.59z M142.23,33.59v10.31h-1.12V33.59H142.23z M141.17,42.79l0.21,1.1h-1.49v-0.17
	c0,0,0.04,0,0.12,0c0.08,0,0.12,0,0.12,0c0.28,0,0.51-0.09,0.7-0.27c0.19-0.18,0.29-0.4,0.3-0.65H141.17z M141.17,34.67h-0.03
	c-0.01-0.26-0.11-0.48-0.3-0.65c-0.19-0.17-0.42-0.26-0.7-0.26c0,0-0.04,0-0.12,0c-0.08,0-0.12,0-0.12,0v-0.17h1.49L141.17,34.67z
	 M142.18,42.79h0.05c0.01,0.25,0.11,0.47,0.3,0.65c0.19,0.18,0.42,0.27,0.7,0.27c0,0,0.03,0,0.1,0c0.08,0,0.12,0,0.12,0l0.02,0.17
	h-1.5L142.18,42.79z"/>
<path d="M155.07,33.64v10.26h-1.14V33.64H155.07z M159.3,33.57v0.52h-9.59v-0.52H159.3z M159.3,34.05v1.19h-0.19v-0.27
	c0-0.24-0.08-0.44-0.24-0.6c-0.15-0.17-0.36-0.26-0.63-0.27v-0.03H159.3z M159.3,33.29v0.45l-1.96-0.17c0.23,0,0.48-0.01,0.73-0.03
	c0.27-0.03,0.51-0.07,0.73-0.12S159.19,33.33,159.3,33.29z M153.97,42.79v1.1h-1.28v-0.17c0.01,0,0.05,0,0.1,0c0.07,0,0.1,0,0.1,0
	c0.28,0,0.52-0.09,0.72-0.27s0.3-0.4,0.31-0.65H153.97z M155.02,42.79h0.05c0.01,0.25,0.12,0.47,0.31,0.65
	c0.2,0.18,0.44,0.27,0.72,0.27c0,0,0.03,0,0.09,0c0.07,0,0.1,0,0.1,0v0.17h-1.28V42.79z M150.77,34.05v0.03
	c-0.27,0.01-0.48,0.1-0.65,0.27c-0.15,0.16-0.23,0.36-0.23,0.6v0.27h-0.19v-1.19H150.77z M149.7,33.29c0.1,0.03,0.26,0.07,0.47,0.12
	c0.22,0.05,0.47,0.09,0.73,0.12c0.27,0.02,0.52,0.03,0.75,0.03l-1.96,0.17V33.29z"/>
<path d="M163.04,33.59v10.31h-1.1V33.59H163.04z M161.99,42.79v1.1h-1.49v-0.17c0,0,0.04,0,0.12,0c0.08,0,0.12,0,0.12,0
	c0.33,0,0.6-0.09,0.82-0.27c0.23-0.18,0.36-0.4,0.37-0.65H161.99z M162.99,42.79h0.05c0.01,0.25,0.13,0.47,0.35,0.65
	c0.23,0.18,0.51,0.27,0.84,0.27c0,0,0.03,0,0.1,0c0.08,0,0.12,0,0.12,0l0.02,0.17h-1.49V42.79z M162.99,34.69v-1.1h1.49l-0.02,0.17
	c0,0-0.04,0-0.12,0c-0.07,0-0.1,0-0.1,0c-0.33,0-0.61,0.09-0.84,0.27c-0.22,0.17-0.34,0.39-0.35,0.65H162.99z M161.99,34.69h-0.05
	c-0.01-0.26-0.13-0.48-0.37-0.65c-0.22-0.18-0.5-0.27-0.82-0.27c-0.01,0-0.06,0-0.14,0c-0.07,0-0.1,0-0.1,0v-0.17h1.49V34.69z"/>
<path d="M169.5,33.35c0.33,0,0.61,0.01,0.86,0.03c0.24,0.02,0.45,0.05,0.63,0.09c0.19,0.02,0.34,0.06,0.47,0.1
	c0.14,0.03,0.26,0.07,0.37,0.1l0.02,1.7h-0.21c0-0.47-0.16-0.84-0.49-1.1c-0.33-0.27-0.83-0.41-1.52-0.41
	c-0.58,0-1.08,0.16-1.5,0.48c-0.41,0.31-0.61,0.69-0.59,1.15c0,0.15,0.02,0.3,0.05,0.46c0.05,0.15,0.12,0.3,0.21,0.45
	c0.1,0.15,0.24,0.3,0.42,0.45l3.53,2.68c0.27,0.22,0.47,0.5,0.59,0.84c0.13,0.33,0.2,0.66,0.21,1c0.01,0.5-0.12,0.97-0.4,1.39
	s-0.66,0.76-1.14,1.01c-0.47,0.24-0.98,0.36-1.56,0.36c-0.34,0-0.7-0.03-1.1-0.09c-0.38-0.06-0.75-0.14-1.08-0.26
	c-0.34-0.13-0.62-0.28-0.84-0.46c-0.03-0.16-0.05-0.36-0.05-0.6c0-0.25,0.02-0.52,0.05-0.79c0.05-0.27,0.1-0.52,0.17-0.74h0.21
	c-0.05,0.52,0.03,0.96,0.23,1.32c0.2,0.37,0.49,0.65,0.87,0.84c0.38,0.18,0.83,0.27,1.35,0.26c0.72-0.02,1.29-0.2,1.69-0.53
	c0.42-0.34,0.63-0.8,0.63-1.36c0-0.27-0.05-0.52-0.16-0.74c-0.09-0.23-0.25-0.44-0.47-0.64l-3.49-2.65
	c-0.33-0.27-0.55-0.58-0.66-0.91c-0.12-0.33-0.17-0.65-0.17-0.94c0-0.47,0.13-0.89,0.38-1.27c0.26-0.38,0.6-0.68,1.03-0.89
	C168.48,33.46,168.97,33.35,169.5,33.35z M171.81,33.5l0.02,0.31h-1.24V33.5H171.81z"/>
<path d="M176.98,33.59v10.31h-1.1V33.59H176.98z M175.93,42.79v1.1h-1.49v-0.17c0,0,0.04,0,0.12,0c0.08,0,0.12,0,0.12,0
	c0.33,0,0.6-0.09,0.82-0.27c0.23-0.18,0.36-0.4,0.37-0.65H175.93z M176.93,42.79h0.05c0.01,0.25,0.13,0.47,0.35,0.65
	c0.23,0.18,0.51,0.27,0.84,0.27c0,0,0.03,0,0.1,0c0.08,0,0.12,0,0.12,0l0.02,0.17h-1.49V42.79z M176.93,34.69v-1.1h1.49l-0.02,0.17
	c0,0-0.04,0-0.12,0c-0.07,0-0.1,0-0.1,0c-0.33,0-0.61,0.09-0.84,0.27c-0.22,0.17-0.34,0.39-0.35,0.65H176.93z M175.93,34.69h-0.05
	c-0.01-0.26-0.13-0.48-0.37-0.65c-0.22-0.18-0.49-0.27-0.82-0.27c-0.01,0-0.06,0-0.14,0c-0.07,0-0.1,0-0.1,0v-0.17h1.49V34.69z"/>
<path d="M181.24,33.33l9.68,8.97l0.17,1.84l-9.68-9.02L181.24,33.33z M181.28,42.83v1.07h-1.31v-0.17c0,0,0.05,0,0.14,0
	c0.1,0,0.16,0,0.16,0c0.27,0,0.49-0.09,0.68-0.26s0.28-0.38,0.28-0.64H181.28z M182.01,42.83c0,0.25,0.09,0.46,0.28,0.64
	c0.2,0.17,0.43,0.26,0.68,0.26c0,0,0.05,0,0.14,0c0.1,0,0.16,0,0.16,0v0.17h-1.31v-1.07H182.01z M181.24,33.33l0.75,0.96l0.02,9.6
	h-0.79v-8.42c0-0.58-0.03-1.09-0.09-1.51c-0.05-0.42-0.07-0.64-0.07-0.64H181.24z M191.1,33.59v8.35c0,0.37,0.01,0.72,0.03,1.07
	c0.02,0.33,0.05,0.61,0.07,0.82c0.03,0.21,0.05,0.31,0.05,0.31h-0.16l-0.77-0.91v-9.64H191.1z M191.04,34.65v-1.07h1.31v0.17
	c0,0-0.05,0-0.16,0c-0.09,0-0.14,0-0.14,0c-0.26,0-0.48,0.09-0.68,0.26c-0.19,0.17-0.28,0.38-0.28,0.64H191.04z M190.33,34.65
	c-0.01-0.25-0.11-0.46-0.3-0.64c-0.19-0.17-0.41-0.26-0.68-0.26c0,0-0.05,0-0.16,0c-0.09,0-0.14,0-0.14,0v-0.17h1.31v1.07H190.33z"
	/>
<path d="M199.49,33.35c0.54,0,1.04,0.04,1.5,0.12c0.48,0.07,0.93,0.18,1.35,0.34c0.43,0.15,0.84,0.34,1.22,0.58l0.38,2.42h-0.16
	c-0.16-0.68-0.43-1.23-0.8-1.67c-0.36-0.44-0.83-0.76-1.42-0.96c-0.58-0.22-1.28-0.33-2.1-0.33c-0.89,0-1.67,0.2-2.34,0.6
	c-0.66,0.39-1.18,0.95-1.56,1.68c-0.37,0.72-0.56,1.59-0.56,2.59c0,1,0.19,1.86,0.56,2.59c0.37,0.73,0.9,1.3,1.57,1.7
	c0.68,0.39,1.46,0.58,2.34,0.58c0.49,0,0.96-0.05,1.4-0.15c0.44-0.1,0.87-0.26,1.28-0.48c0.42-0.23,0.81-0.52,1.17-0.86l0.02-2.28
	c0.01-0.22-0.06-0.38-0.21-0.5c-0.14-0.11-0.34-0.17-0.59-0.17h-0.24V39h3.2v0.17h-0.24c-0.52,0-0.79,0.23-0.79,0.69v2.06
	c-0.27,0.33-0.63,0.67-1.1,1.01c-0.47,0.34-1.03,0.63-1.68,0.86c-0.64,0.23-1.37,0.34-2.2,0.34c-1.15-0.01-2.16-0.23-3.02-0.67
	c-0.85-0.44-1.51-1.05-1.99-1.86c-0.48-0.8-0.72-1.76-0.72-2.87c0-1.12,0.24-2.08,0.72-2.89c0.48-0.8,1.15-1.42,2.01-1.86
	C197.35,33.56,198.35,33.35,199.49,33.35z"/>
</svg>
