<?xml version="1.0" encoding="utf-8"?>
<!-- Generator: Adobe Illustrator 25.3.1, SVG Export Plug-In . SVG Version: 6.00 Build 0)  -->
<svg version="1.1" id="Слой_1" xmlns="http://www.w3.org/2000/svg" xmlns:xlink="http://www.w3.org/1999/xlink" x="0px" y="0px"
	 viewBox="0 0 1102 1076" style="enable-background:new 0 0 1102 1076;" xml:space="preserve">
<style type="text/css">
	.st0{fill:none;stroke:#343434;stroke-linecap:round;}
	.st1{fill:#343434;}
</style>
<path class="st0" d="M3.07,0.39c-0.53,17.33-1.1,34.52-1.33,51.62 M840.75,1071.83c-8.13-46.73-29.34-93.6-49.51-135.86
	c-20.28-42.51-43.55-83.71-73.98-119.83c-96.16-114.15-214.06-231.35-190.38-394.55c12.31-84.82,39.33-182.16,99.34-246.09
	c38.95-41.49,92.12-68.16,147.68-80.48c41.26-9.15,83.9-10.7,125.94-7.28c54.17,4.41,118.78,34.24,155.86,74.15
	c39.35,42.34,50.75,105.44,40.18,162.27c-21.13,113.58-116.2,227.98-226.09,266.16c-92.23,32.04-200.04,11.13-294.35-1.92
	c-82.79-11.46-165.22-29.95-243.07-60.79c-99.54-39.43-192.52-101.18-251.12-192.61c-26.58-41.48-50.13-87.15-63.85-134.6
	c-7.69-26.58-12.29-60.16-14.38-86.88"/>
<circle class="st1" cx="841.22" cy="1071.51" r="3.5"/>
<path class="st1" d="M852.47,1061.9c0.42,0,0.8-0.12,1.16-0.36c0.35-0.24,0.63-0.57,0.84-0.99c0.22-0.43,0.33-0.92,0.33-1.47
	c0-0.86-0.2-1.52-0.6-1.99c-0.4-0.47-0.94-0.71-1.63-0.71c-0.46,0-0.89,0.11-1.29,0.33c-0.4,0.21-0.82,0.57-1.26,1.08
	c-0.01,0.09-0.01,0.18-0.01,0.27c0,0.09,0,0.18,0,0.27c0,0.65,0.09,1.25,0.28,1.8c0.19,0.54,0.47,0.97,0.83,1.29
	C851.48,1061.74,851.93,1061.9,852.47,1061.9z M855.28,1059.04c0,0.59-0.13,1.12-0.39,1.6c-0.25,0.48-0.59,0.86-1.02,1.14
	s-0.91,0.43-1.43,0.43c-0.62,0-1.15-0.17-1.59-0.5c-0.43-0.33-0.76-0.79-0.99-1.37c-0.23-0.58-0.35-1.24-0.35-1.99
	c0-0.76,0.13-1.49,0.39-2.19c0.26-0.71,0.64-1.36,1.12-1.94c0.5-0.58,1.1-1.06,1.8-1.45s1.49-0.65,2.37-0.77l0.05,0.24
	c-0.99,0.18-1.85,0.52-2.58,1.01s-1.32,1.09-1.76,1.8c-0.44,0.71-0.72,1.49-0.85,2.34c0.74-0.87,1.6-1.31,2.58-1.31
	c0.82,0,1.47,0.27,1.93,0.8C855.04,1057.41,855.28,1058.13,855.28,1059.04z"/>
</svg>
