<?xml version="1.0" encoding="utf-8"?>
<!-- Generator: Adobe Illustrator 25.3.1, SVG Export Plug-In . SVG Version: 6.00 Build 0)  -->
<svg version="1.1" id="Слой_1" xmlns="http://www.w3.org/2000/svg" xmlns:xlink="http://www.w3.org/1999/xlink" x="0px" y="0px"
	 viewBox="0 0 1223 187" style="enable-background:new 0 0 1223 187;" xml:space="preserve">
<style type="text/css">
	.st0{fill:#343434;fill-opacity:0.62;}
	.st1{fill:none;stroke:#343434;stroke-width:1.5;stroke-linecap:round;}
	.st2{fill:#343434;}
</style>
<path class="st0" d="M1.58,81.59v-0.63l2.76-0.45V58.67l-2.76-0.42v-0.66h8.82v0.66l-2.76,0.42v9.84h11.4v-9.84l-2.79-0.42v-0.66
	h8.88v0.66l-2.79,0.42v21.84l2.79,0.45v0.63h-8.88v-0.63l2.79-0.45V69.26H7.64v11.25l2.76,0.45v0.63H1.58z M29.88,90.35
	c-1.04,0-1.88-0.26-2.52-0.78c-0.64-0.52-0.96-1.22-0.96-2.1c0-0.6,0.17-1.09,0.51-1.47c0.36-0.36,0.8-0.54,1.32-0.54
	c0.38,0,0.72,0.08,1.02,0.24c0.3,0.16,0.54,0.4,0.72,0.72c-0.3,0.42-0.45,0.86-0.45,1.32c0,0.4,0.13,0.73,0.39,0.99
	s0.59,0.39,0.99,0.39c0.48,0,0.89-0.16,1.23-0.48c0.36-0.32,0.68-0.88,0.96-1.68l1.8-5.16l-6.96-14.82l-2.01-0.3v-0.6h7.47v0.6
	l-2.1,0.36l5.01,10.71l3.57-10.32l-2.58-0.75v-0.6h5.4v0.6l-2.04,0.75l-6.72,19.53C33.51,88.14,33,89,32.4,89.54
	C31.82,90.08,30.98,90.35,29.88,90.35z M52.15,81.89c-0.5,0-1.01-0.11-1.53-0.33c-0.52-0.24-0.97-0.58-1.35-1.02l0.45-0.45
	c0.36,0.36,0.71,0.54,1.05,0.54c0.3,0,0.52-0.11,0.66-0.33c0.16-0.22,0.31-0.66,0.45-1.32l0.33-1.74c0.18-0.98,0.51-1.71,0.99-2.19
	c0.48-0.48,1.26-0.8,2.34-0.96v-0.15c-1.06-0.18-1.93-0.57-2.61-1.17c-0.66-0.6-0.99-1.48-0.99-2.64c0-1.34,0.45-2.35,1.35-3.03
	c0.9-0.7,2.36-1.05,4.38-1.05h8.58v0.63l-2.16,0.3v13.68l2.16,0.33v0.6h-7.32v-0.6l2.16-0.33v-6.21h-2.76
	c-0.86,0-1.53,0.19-2.01,0.57c-0.46,0.38-0.76,1.01-0.9,1.89l-0.45,2.55c-0.16,0.88-0.45,1.51-0.87,1.89
	C53.68,81.71,53.03,81.89,52.15,81.89z M61.09,73.7v-6.9h-2.52c-1.16,0-2.02,0.26-2.58,0.78c-0.54,0.52-0.81,1.35-0.81,2.49v0.39
	c0,1.12,0.28,1.94,0.84,2.46c0.56,0.52,1.33,0.78,2.31,0.78H61.09z M81.85,81.89c-0.88,0-1.53-0.18-1.95-0.54
	c-0.42-0.38-0.71-1.01-0.87-1.89l-0.6-3.18c-0.18-0.94-0.48-1.6-0.9-1.98s-0.99-0.58-1.71-0.6h-2.79v6.96l2.16,0.33v0.6h-7.32v-0.6
	l2.16-0.33V66.98l-2.16-0.3v-0.63h7.32v0.63l-2.16,0.3v6.03h2.82c0.5-0.04,0.9-0.21,1.2-0.51c0.3-0.32,0.55-0.86,0.75-1.62
	l0.54-2.16c0.24-0.98,0.56-1.71,0.96-2.19c0.42-0.5,1.06-0.75,1.92-0.75c0.72,0,1.28,0.2,1.68,0.6c0.4,0.38,0.6,0.85,0.6,1.41
	c0,0.52-0.17,0.97-0.51,1.35c-0.32,0.36-0.76,0.54-1.32,0.54c-0.3,0-0.59-0.05-0.87-0.15c0.06-0.18,0.09-0.35,0.09-0.51
	c0-0.26-0.08-0.48-0.24-0.66c-0.16-0.18-0.36-0.27-0.6-0.27c-0.48,0-0.8,0.28-0.96,0.84l-0.57,2.16c-0.26,0.94-0.6,1.6-1.02,1.98
	c1.32,0.12,2.28,0.44,2.88,0.96c0.62,0.52,1.03,1.31,1.23,2.37l0.51,2.58c0.14,0.66,0.28,1.1,0.42,1.32
	c0.16,0.22,0.39,0.33,0.69,0.33c0.34,0,0.69-0.18,1.05-0.54l0.45,0.45c-0.38,0.44-0.83,0.78-1.35,1.02
	C82.86,81.78,82.35,81.89,81.85,81.89z M109.93,86.54l-2.64-4.95h-21.9v-0.6l2.1-0.3V66.95l-2.1-0.3v-0.6h7.2v0.6l-2.1,0.3v13.89
	h5.85V66.95l-2.1-0.3v-0.6h7.2v0.6l-2.1,0.3v13.89h5.85V66.95l-2.1-0.3v-0.6h7.2v0.6l-2.1,0.3v13.89h2.13l0.45,5.7H109.93z
	 M120.04,81.89c-1.44,0-2.75-0.33-3.93-0.99c-1.18-0.68-2.12-1.63-2.82-2.85c-0.68-1.24-1.02-2.65-1.02-4.23
	c0-1.58,0.34-2.98,1.02-4.2c0.7-1.22,1.64-2.16,2.82-2.82c1.18-0.68,2.49-1.02,3.93-1.02s2.75,0.34,3.93,1.02
	c1.18,0.66,2.11,1.6,2.79,2.82c0.7,1.22,1.05,2.62,1.05,4.2c0,1.58-0.35,2.99-1.05,4.23c-0.68,1.22-1.61,2.17-2.79,2.85
	C122.79,81.56,121.48,81.89,120.04,81.89z M120.04,81.23c1.48,0,2.59-0.54,3.33-1.62c0.76-1.08,1.14-2.51,1.14-4.29v-3
	c0-1.78-0.38-3.2-1.14-4.26c-0.74-1.08-1.85-1.62-3.33-1.62c-1.48,0-2.6,0.54-3.36,1.62c-0.74,1.06-1.11,2.48-1.11,4.26v3
	c0,1.78,0.37,3.21,1.11,4.29C117.44,80.69,118.56,81.23,120.04,81.23z M137.07,80.99l2.1-0.3V66.95l-2.1-0.3v-0.6h8.22
	c2.06,0,3.53,0.29,4.41,0.87c0.88,0.56,1.32,1.48,1.32,2.76c0,1.86-1.18,3.05-3.54,3.57v0.09c3.04,0.42,4.56,1.77,4.56,4.05
	c0,1.4-0.51,2.45-1.53,3.15c-1.02,0.7-2.44,1.05-4.26,1.05h-9.18V80.99z M144.57,73.07c1.04,0,1.83-0.27,2.37-0.81
	c0.56-0.54,0.84-1.35,0.84-2.43v-0.12c0-0.98-0.28-1.71-0.84-2.19s-1.41-0.72-2.55-0.72h-2.22v6.27H144.57z M145.35,80.84
	c1.1,0,1.95-0.29,2.55-0.87c0.6-0.58,0.9-1.43,0.9-2.55v-0.21c0-1.14-0.3-1.99-0.9-2.55c-0.58-0.58-1.43-0.87-2.55-0.87h-3.18v7.05
	H145.35z M153.97,81.59v-0.6l2.1-0.3V66.95l-2.1-0.3v-0.6h6.9v0.6l-1.8,0.3v11.67l7.59-11.07v-0.6l-1.8-0.3v-0.6h6.9v0.6l-2.1,0.3
	v13.74l2.1,0.3v0.6h-6.9v-0.6l1.8-0.3V68.81l-7.59,11.1v0.78l1.8,0.3v0.6H153.97z M180.58,80.99l2.1-0.3V66.95l-2.1-0.3v-0.6h8.22
	c2.06,0,3.53,0.29,4.41,0.87c0.88,0.56,1.32,1.48,1.32,2.76c0,1.86-1.18,3.05-3.54,3.57v0.09c3.04,0.42,4.56,1.77,4.56,4.05
	c0,1.4-0.51,2.45-1.53,3.15c-1.02,0.7-2.44,1.05-4.26,1.05h-9.18V80.99z M188.08,73.07c1.04,0,1.83-0.27,2.37-0.81
	c0.56-0.54,0.84-1.35,0.84-2.43v-0.12c0-0.98-0.28-1.71-0.84-2.19s-1.41-0.72-2.55-0.72h-2.22v6.27H188.08z M188.86,80.84
	c1.1,0,1.95-0.29,2.55-0.87c0.6-0.58,0.9-1.43,0.9-2.55v-0.21c0-1.14-0.3-1.99-0.9-2.55c-0.58-0.58-1.43-0.87-2.55-0.87h-3.18v7.05
	H188.86z M199.4,81.95c-0.5,0-1.01-0.12-1.53-0.36c-0.52-0.22-0.97-0.55-1.35-0.99l0.45-0.45c0.36,0.36,0.71,0.54,1.05,0.54
	c0.3,0,0.53-0.11,0.69-0.33c0.16-0.24,0.3-0.68,0.42-1.32l0.51-2.64c0.18-1.06,0.57-1.85,1.17-2.37c0.62-0.52,1.59-0.84,2.91-0.96
	c-0.44-0.4-0.77-1.06-0.99-1.98l-0.57-2.16c-0.16-0.56-0.48-0.84-0.96-0.84c-0.24,0-0.44,0.09-0.6,0.27s-0.24,0.4-0.24,0.66
	c0,0.16,0.03,0.33,0.09,0.51c-0.28,0.1-0.57,0.15-0.87,0.15c-0.56,0-1.01-0.18-1.35-0.54c-0.32-0.38-0.48-0.83-0.48-1.35
	c0-0.56,0.2-1.03,0.6-1.41c0.4-0.4,0.96-0.6,1.68-0.6c0.86,0,1.49,0.25,1.89,0.75c0.42,0.48,0.75,1.21,0.99,2.19l0.54,2.16
	c0.18,0.74,0.42,1.27,0.72,1.59s0.7,0.5,1.2,0.54h2.55v-6.03l-2.16-0.3v-0.63h7.32v0.63l-2.16,0.3v6.03h2.49
	c0.5-0.02,0.9-0.19,1.2-0.51c0.32-0.32,0.58-0.86,0.78-1.62l0.54-2.16c0.24-0.98,0.56-1.71,0.96-2.19c0.42-0.5,1.06-0.75,1.92-0.75
	c0.72,0,1.28,0.2,1.68,0.6c0.4,0.38,0.6,0.85,0.6,1.41c0,0.52-0.17,0.97-0.51,1.35c-0.32,0.36-0.76,0.54-1.32,0.54
	c-0.3,0-0.59-0.05-0.87-0.15c0.06-0.18,0.09-0.35,0.09-0.51c0-0.26-0.08-0.48-0.24-0.66s-0.36-0.27-0.6-0.27
	c-0.48,0-0.8,0.28-0.96,0.84l-0.57,2.16c-0.22,0.9-0.56,1.56-1.02,1.98c1.32,0.12,2.29,0.44,2.91,0.96c0.62,0.52,1.02,1.31,1.2,2.37
	l0.51,2.64c0.12,0.64,0.26,1.08,0.42,1.32c0.16,0.22,0.39,0.33,0.69,0.33c0.34,0,0.69-0.18,1.05-0.54l0.45,0.45
	c-0.38,0.44-0.83,0.77-1.35,0.99c-0.52,0.24-1.03,0.36-1.53,0.36c-0.88,0-1.53-0.18-1.95-0.54c-0.42-0.38-0.71-1.01-0.87-1.89
	l-0.6-3.24c-0.18-0.98-0.49-1.65-0.93-2.01c-0.44-0.38-1.05-0.57-1.83-0.57h-2.34v6.96l2.16,0.33v0.6h-7.32v-0.6l2.16-0.33V73.7
	h-2.49c-0.74,0.02-1.32,0.22-1.74,0.6s-0.71,1.04-0.87,1.98l-0.6,3.24c-0.16,0.88-0.45,1.51-0.87,1.89
	C200.93,81.77,200.28,81.95,199.4,81.95z M231.37,81.89c-1.48,0-2.82-0.33-4.02-0.99c-1.2-0.68-2.15-1.63-2.85-2.85
	s-1.05-2.63-1.05-4.23c0-1.6,0.34-3,1.02-4.2c0.7-1.22,1.63-2.16,2.79-2.82c1.18-0.68,2.49-1.02,3.93-1.02
	c1.26,0,2.39,0.28,3.39,0.84s1.78,1.34,2.34,2.34c0.56,0.98,0.85,2.11,0.87,3.39h-11.04v2.97c0,1.76,0.39,3.19,1.17,4.29
	c0.8,1.08,1.95,1.62,3.45,1.62c1.38,0,2.6-0.39,3.66-1.17s1.71-1.79,1.95-3.03h0.69c-0.28,1.48-0.99,2.66-2.13,3.54
	C234.4,81.45,233.01,81.89,231.37,81.89z M234.49,71.6c0-1.74-0.27-3.03-0.81-3.87c-0.54-0.86-1.38-1.29-2.52-1.29
	c-1.34,0-2.38,0.47-3.12,1.41c-0.74,0.94-1.16,2.19-1.26,3.75H234.49z M250.41,81.59v-0.6l2.4-0.3V66.8h-2.58l-2.61,4.95h-0.84
	l0.45-5.7h14.16l0.45,5.7H261l-2.64-4.95h-2.55v13.89l2.4,0.3v0.6H250.41z M266.01,90.35c-1.04,0-1.88-0.26-2.52-0.78
	c-0.64-0.52-0.96-1.22-0.96-2.1c0-0.6,0.17-1.09,0.51-1.47c0.36-0.36,0.8-0.54,1.32-0.54c0.38,0,0.72,0.08,1.02,0.24
	c0.3,0.16,0.54,0.4,0.72,0.72c-0.3,0.42-0.45,0.86-0.45,1.32c0,0.4,0.13,0.73,0.39,0.99s0.59,0.39,0.99,0.39
	c0.48,0,0.89-0.16,1.23-0.48c0.36-0.32,0.68-0.88,0.96-1.68l1.8-5.16l-6.96-14.82l-2.01-0.3v-0.6h7.47v0.6l-2.1,0.36l5.01,10.71
	L276,67.43l-2.58-0.75v-0.6h5.4v0.6l-2.04,0.75l-6.72,19.53c-0.42,1.18-0.93,2.04-1.53,2.58C267.95,90.08,267.11,90.35,266.01,90.35
	z M282.79,81.59v-0.6l2.4-0.3V66.8h-2.58L280,71.75h-0.84l0.45-5.7h14.16l0.45,5.7h-0.84l-2.64-4.95h-2.55v13.89l2.4,0.3v0.6H282.79
	z M296.65,81.89c-0.5,0-0.93-0.17-1.29-0.51c-0.34-0.36-0.51-0.79-0.51-1.29s0.17-0.91,0.51-1.23c0.36-0.34,0.79-0.51,1.29-0.51
	s0.92,0.17,1.26,0.51c0.34,0.32,0.51,0.73,0.51,1.23s-0.17,0.93-0.51,1.29C297.57,81.72,297.15,81.89,296.65,81.89z M303.21,81.89
	c-0.5,0-0.93-0.17-1.29-0.51c-0.34-0.36-0.51-0.79-0.51-1.29s0.17-0.91,0.51-1.23c0.36-0.34,0.79-0.51,1.29-0.51
	s0.92,0.17,1.26,0.51c0.34,0.32,0.51,0.73,0.51,1.23s-0.17,0.93-0.51,1.29C304.13,81.72,303.71,81.89,303.21,81.89z M309.78,81.89
	c-0.5,0-0.93-0.17-1.29-0.51c-0.34-0.36-0.51-0.79-0.51-1.29s0.17-0.91,0.51-1.23c0.36-0.34,0.79-0.51,1.29-0.51
	s0.92,0.17,1.26,0.51c0.34,0.32,0.51,0.73,0.51,1.23s-0.17,0.93-0.51,1.29C310.7,81.72,310.28,81.89,309.78,81.89z"/>
<path class="st1" d="M133.04,133.59c-1-3.5-5-16.5,2.5-39.5 M151.54,55.09c11.5-18.5,26.52-29.49,49.64-38.86
	c76.06-30.82,168.17-7.6,243.86,12.59c87.25,23.27,167.68,65.17,251,99.02c92.72,37.68,190.02,72.52,291.36,51.65
	c120.17-24.75,167.65-71.9,236.15-161.9"/>
<circle class="st2" cx="133.54" cy="135.09" r="3.5"/>
<path class="st2" d="M143.15,125.53l3.87-9.33h-5.29v-0.42h5.67v0.3l-3.75,9.51h-0.43L143.15,125.53z"/>
</svg>
